#!OML:ASF H:\ManfredETheater\Project 1\Capture day 1\Session 1\subject.ASF
:FULLY-SPECIFIED
:DEGREES
366
root 1.86143 16.5209 -45.8092 -155.285 -6.43634 181.657
lowerback 12.9179 -0.0857363 8.24398
upperback -3.476 1.36655 1.75067
thorax -10.9646 0.114663 -3.03184
lowerneck -20.4301 -2.54761 -3.6085
upperneck -1.82089 -3.46138 2.10546
head 3.09546 -1.96762 1.02531
rclavicle -2.90226e-014 -4.13472e-014
rhumerus -39.9285 17.6045 -93.4797
rradius 116.869
rwrist -8.95824
rhand -21.7489 11.4195
rfingers 7.12502
rthumb 4.65127 -18.5095
lclavicle -2.90226e-014 -4.13472e-014
lhumerus -80.6986 -11.7258 93.5793
lradius 105.524
lwrist 9.49849
lhand -21.2901 -14.2795
lfingers 7.12502
lthumb 5.09427 15.6393
rfemur 9.07727 3.07433 32.5575
rtibia 28.7987
rfoot 34.0816 5.64012
rtoes -9.72299
lfemur -75.3901 5.2341 -26.2459
ltibia 73.8256
lfoot -16.1326 -18.1636
ltoes -11.0545
367
root 1.9116 16.5442 -46.3349 -155.712 -6.95225 181.614
lowerback 13.0767 -0.173963 8.05892
upperback -3.32148 1.2282 1.71304
thorax -10.9008 0.0698923 -2.94263
lowerneck -20.7262 -2.67168 -3.74625
upperneck -2.04508 -3.6409 2.49929
head 3.08951 -2.05362 1.16392
rclavicle -1.63003e-014 -2.54444e-014
rhumerus -41.1083 16.4376 -93.7436
rradius 113.377
rwrist -8.36225
rhand -21.9454 10.7487
rfingers 7.12502
rthumb 4.46152 -19.1843
lclavicle -1.63003e-014 -2.54444e-014
lhumerus -78.4589 -11.4563 93.8399
lradius 105.087
lwrist 9.2726
lhand -21.833 -14.3494
lfingers 7.12502
lthumb 4.57003 15.5813
rfemur 7.42537 1.72402 32.7168
rtibia 34.0876
rfoot 33.579 5.29605
rtoes -9.42123
lfemur -73.7759 5.66102 -27.1781
ltibia 72.2095
lfoot -16.1381 -17.9962
ltoes -8.92774
368
root 1.9607 16.5652 -46.859 -156.221 -7.30972 181.54
lowerback 13.3435 -0.238419 7.75127
upperback -3.11014 1.10786 1.66511
thorax -10.8346 0.042934 -2.80092
lowerneck -20.992 -2.76643 -3.87151
upperneck -2.35203 -3.79315 2.89137
head 3.04796 -2.13045 1.30287
rclavicle 1.19271e-014 -1.74931e-014
rhumerus -42.1817 15.1959 -93.9269
rradius 109.661
rwrist -8.15544
rhand -22.1358 10.0967
rfingers 7.12502
rthumb 4.27764 -19.8401
lclavicle 1.19271e-014 -1.74931e-014
lhumerus -76.0001 -11.2111 94.1856
lradius 104.617
lwrist 9.31794
lhand -22.3439 -14.433
lfingers 7.12502
lthumb 4.07664 15.5078
rfemur 5.68182 0.384936 32.6827
rtibia 39.5784
rfoot 32.9332 4.60443
rtoes -10.2731
lfemur -71.8868 6.17843 -27.9565
ltibia 71.0433
lfoot -16.4489 -17.4228
ltoes -6.32733
369
root 2.00746 16.5834 -47.3827 -156.812 -7.53745 181.433
lowerback 13.7093 -0.288072 7.35122
upperback -2.84937 0.995312 1.6065
thorax -10.7697 0.0255016 -2.62102
lowerneck -21.5858 -2.82545 -3.91972
upperneck -2.20202 -3.91009 3.31506
head 2.79205 -2.18403 1.30689
rclavicle -5.1684e-015 1.82882e-014
rhumerus -43.1475 13.9028 -94.0178
rradius 105.757
rwrist -8.31459
rhand -22.4382 9.51671
rfingers 7.12502
rthumb 3.98563 -20.4258
lclavicle -5.1684e-015 1.82882e-014
lhumerus -73.359 -10.99 94.5931
lradius 104.14
lwrist 9.58428
lhand -22.7901 -14.5351
lfingers 7.12502
lthumb 3.64576 15.4134
rfemur 3.86418 -0.919509 32.4655
rtibia 45.1665
rfoot 32.1916 3.8102
rtoes -11.604
lfemur -69.7236 6.70456 -28.5106
ltibia 70.3142
lfoot -17.0979 -16.4112
ltoes -3.71447
370
root 2.05157 16.595 -47.9043 -157.45 -7.67021 181.248
lowerback 14.1303 -0.329371 6.83943
upperback -2.54333 0.871546 1.5312
thorax -10.6865 0.00935324 -2.39336
lowerneck -21.3697 -2.83284 -4.00731
upperneck -3.22534 -3.98334 3.55308
head 2.83433 -2.24815 1.53137
rclavicle -1.15295e-014 -3.97569e-015
rhumerus -43.9813 12.5765 -93.9914
rradius 101.701
rwrist -8.80964
rhand -22.7555 8.94422
rfingers 7.12502
rthumb 3.67919 -21.0038
lclavicle -1.15295e-014 -3.97569e-015
lhumerus -70.5409 -10.7956 95.0499
lradius 103.668
lwrist 9.99477
lhand -23.1491 -14.642
lfingers 7.12502
lthumb 3.2991 15.3122
rfemur 1.93057 -2.19589 32.0448
rtibia 50.8512
rfoot 31.2568 3.10754
rtoes -12.4076
lfemur -67.3261 7.12699 -28.8442
ltibia 69.9766
lfoot -18.0846 -14.947
ltoes -1.39054
371
root 2.09277 16.6077 -48.4274 -158.098 -7.7269 180.913
lowerback 14.5805 -0.375662 6.16664
upperback -2.21254 0.706017 1.42956
thorax -10.5949 -0.0188537 -2.09267
lowerneck -21.4359 -2.80076 -4.03916
upperneck -3.80656 -4.01205 3.81584
head 2.64858 -2.28579 1.62359
rclavicle -7.55382e-015 -2.22639e-014
rhumerus -44.6996 11.253 -93.8424
rradius 97.544
rwrist -9.51367
rhand -23.0098 8.35421
rfingers 7.12502
rthumb 3.43368 -21.5979
lclavicle -7.55382e-015 -2.22639e-014
lhumerus -67.5906 -10.5909 95.553
lradius 103.248
lwrist 10.4291
lhand -23.4116 -14.7343
lfingers 7.12502
lthumb 3.04563 15.2237
rfemur -0.137517 -3.46136 31.3522
rtibia 56.5638
rfoot 30.0422 2.61242
rtoes -12.5145
lfemur -64.6476 7.36192 -29.0253
ltibia 69.8712
lfoot -19.3616 -13.181
ltoes 0.453231
372
root 2.13021 16.6012 -48.9433 -158.701 -7.74494 180.35
lowerback 15.0215 -0.436455 5.30075
upperback -1.88207 0.474613 1.27582
thorax -10.5002 -0.0707695 -1.72183
lowerneck -21.41 -2.73455 -4.06434
upperneck -4.45965 -4.00259 4.05167
head 2.41917 -2.31029 1.70993
rclavicle -1.63003e-014 -9.54166e-015
rhumerus -45.3481 9.92013 -93.5775
rradius 93.3679
rwrist -10.2008
rhand -23.1858 7.74149
rfingers 7.12502
rthumb 3.26368 -22.2133
lclavicle -1.63003e-014 -9.54166e-015
lhumerus -64.5479 -10.3944 96.103
lradius 102.908
lwrist 10.7719
lhand -23.587 -14.8102
lfingers 7.12502
lthumb 2.87625 15.1501
rfemur -2.41049 -4.76102 30.3307
rtibia 62.3302
rfoot 28.3799 2.35522
rtoes -12.1891
lfemur -61.8439 7.28745 -29.1734
ltibia 69.9314
lfoot -20.8192 -11.1925
ltoes 1.4855
373
root 2.16453 16.5878 -49.4565 -159.222 -7.69654 179.525
lowerback 15.445 -0.495599 4.19548
upperback -1.5739 0.18736 1.05783
thorax -10.4181 -0.140991 -1.26877
lowerneck -21.4238 -2.67332 -4.07061
upperneck -5.06124 -4.00096 4.24083
head 2.21442 -2.34126 1.77589
rclavicle 4.96962e-015 -1.98785e-014
rhumerus -45.9907 8.57287 -93.1976
rradius 89.2757
rwrist -10.5948
rhand -23.329 7.23784
rfingers 7.12502
rthumb 3.12535 -22.719
lclavicle 4.96962e-015 -1.98785e-014
lhumerus -61.4538 -10.2499 96.7107
lradius 102.701
lwrist 10.971
lhand -23.7085 -14.8056
lfingers 7.12502
lthumb 2.75885 15.1563
rfemur -4.91364 -6.0677 28.9351
rtibia 68.0655
rfoot 26.2335 2.28901
rtoes -11.9795
lfemur -58.8714 6.91409 -29.3825
ltibia 69.9548
lfoot -22.3695 -9.13966
ltoes 1.82568
374
root 2.19547 16.5677 -49.966 -159.585 -7.63727 178.474
lowerback 15.7751 -0.563088 2.92387
upperback -1.32015 -0.159368 0.785621
thorax -10.3368 -0.236183 -0.762022
lowerneck -21.4697 -2.62818 -4.09128
upperneck -5.58923 -4.01194 4.41966
head 2.04267 -2.37705 1.83964
rclavicle 4.57205e-015 1.15295e-014
rhumerus -46.7092 7.21664 -92.7061
rradius 85.3954
rwrist -10.4777
rhand -23.5216 6.87861
rfingers 7.12502
rthumb 2.93939 -23.0809
lclavicle 4.57205e-015 1.15295e-014
lhumerus -58.3441 -10.1894 97.376
lradius 102.681
lwrist 11.0164
lhand -23.8145 -14.7179
lfingers 7.12502
lthumb 2.65647 15.2453
rfemur -7.73625 -7.41697 27.2303
rtibia 73.7249
rfoot 23.5966 2.3386
rtoes -12.1963
lfemur -55.8744 6.22701 -29.6899
ltibia 69.8555
lfoot -23.9609 -7.21722
ltoes 1.47643
